# xmcd
#
# Track frame offsets:
#	150
#	27307
#	50005
#	70585
#	86447
#	104012
#	124315
#	151072
#	187535
#	209775
#
# Disc length: 3134 seconds
#
# Revision: 4
# Processed by: cddbd v1.5.1PL0 Copyright (c) Steve Scherf et al.
# Submitted via: audiograbber 1.83.01
#
DISCID=840c3c0a
DTITLE=S'Express - Original Soundtrack
DYEAR=1989
DGENRE=House
TTITLE0=Theme From S'Express
TTITLE1=L'Age Du Gateau
TTITLE2=Can You Feel Me?
TTITLE3=Superfly Guy
TTITLE4=Blow Me Another Lollipop
TTITLE5=Hey Music Lover
TTITLE6=Pimps, Pushers And Prostitutes
TTITLE7=Special And Golden (Parts I And II)
TTITLE8=Coma II (A.M/O.K)
TTITLE9=Pimps, Pushers And Prostitutes (Instrumental)
EXTD=
EXTT0=
EXTT1=
EXTT2=
EXTT3=
EXTT4=
EXTT5=
EXTT6=
EXTT7=
EXTT8=
EXTT9=
PLAYORDER=
